<?xml version="1.0" encoding="UTF-8" standalone="no"?>
<!-- Created with Inkscape (http://www.inkscape.org/) -->

<svg
   width="120mm"
   height="120mm"
   viewBox="0 0 120 120"
   version="1.1"
   id="svg5"
   inkscape:version="1.2.1 (9c6d41e410, 2022-07-14)"
   sodipodi:docname="logo.svg"
   xmlns:inkscape="http://www.inkscape.org/namespaces/inkscape"
   xmlns:sodipodi="http://sodipodi.sourceforge.net/DTD/sodipodi-0.dtd"
   xmlns:xlink="http://www.w3.org/1999/xlink"
   xmlns="http://www.w3.org/2000/svg"
   xmlns:svg="http://www.w3.org/2000/svg">
  <sodipodi:namedview
     id="namedview7"
     pagecolor="#ffffff"
     bordercolor="#111111"
     borderopacity="1"
     inkscape:showpageshadow="0"
     inkscape:pageopacity="0"
     inkscape:pagecheckerboard="1"
     inkscape:deskcolor="#d1d1d1"
     inkscape:document-units="mm"
     showgrid="true"
     inkscape:zoom="1.6819304"
     inkscape:cx="221.17443"
     inkscape:cy="176.58281"
     inkscape:window-width="2248"
     inkscape:window-height="1488"
     inkscape:window-x="0"
     inkscape:window-y="1510"
     inkscape:window-maximized="1"
     inkscape:current-layer="layer1">
    <inkscape:grid
       type="xygrid"
       id="grid686"
       dotted="true"
       originx="-85.26558"
       originy="-55.793747" />
  </sodipodi:namedview>
  <defs
     id="defs2">
    <linearGradient
       inkscape:collect="always"
       id="linearGradient1804">
      <stop
         style="stop-color:#abc900;stop-opacity:1;"
         offset="0"
         id="stop1800" />
      <stop
         style="stop-color:#b29000;stop-opacity:1;"
         offset="1"
         id="stop1802" />
    </linearGradient>
    <linearGradient
       inkscape:collect="always"
       xlink:href="#linearGradient1804"
       id="linearGradient1806"
       x1="129"
       y1="91"
       x2="168"
       y2="137"
       gradientUnits="userSpaceOnUse"
       gradientTransform="matrix(1.9672131,0,0,1.9672131,-140.90591,-111.47739)" />
  </defs>
  <g
     inkscape:label="Layer 1"
     inkscape:groupmode="layer"
     id="layer1"
     transform="translate(-85.265579,-55.793747)">
    <g
       id="g1911">
      <circle
         style="fill:url(#linearGradient1806);fill-opacity:1;stroke:none;stroke-width:0.116066;stop-color:#000000"
         id="path1738"
         cx="145.26558"
         cy="115.79375"
         r="60" />
      <path
         id="path1444-5"
         style="mix-blend-mode:normal;fill:#2c66e5;fill-opacity:0.636487;stroke:none;stroke-width:0.116066;stop-color:#000000"
         d="m 168.02687,115.80333 a 26.248696,33.172454 48.345655 0 0 -0.69839,-1.22295 26.248696,33.172454 48.345655 0 0 -1.07351,-1.54114 26.248696,33.172454 48.345655 0 0 -1.20466,-1.43542 26.248696,33.172454 48.345655 0 0 -1.3307,-1.32157 26.248696,33.172454 48.345655 0 0 -1.44761,-1.20161 26.248696,33.172454 48.345655 0 0 -1.55945,-1.07453 26.248696,33.172454 48.345655 0 0 -1.66313,-0.94338 26.248696,33.172454 48.345655 0 0 -1.75668,-0.80617 26.248696,33.172454 48.345655 0 0 -1.84204,-0.66484 26.248696,33.172454 48.345655 0 0 -1.91932,-0.52151 26.248696,33.172454 48.345655 0 0 -1.98539,-0.37409 26.248696,33.172454 48.345655 0 0 -2.04131,-0.22468 26.248696,33.172454 48.345655 0 0 -2.08704,-0.0753 26.248696,33.172454 48.345655 0 0 -2.12264,0.0753 26.248696,33.172454 48.345655 0 0 -2.14703,0.22468 26.248696,33.172454 48.345655 0 0 -2.16126,0.37409 26.248696,33.172454 48.345655 0 0 -2.16329,0.52151 26.248696,33.172454 48.345655 0 0 -2.15413,0.66484 26.248696,33.172454 48.345655 0 0 -2.13585,0.80617 26.248696,33.172454 48.345655 0 0 -2.10434,0.94338 26.248696,33.172454 48.345655 0 0 -2.06367,1.07453 26.248696,33.172454 48.345655 0 0 -2.01283,1.20161 26.248696,33.172454 48.345655 0 0 -1.94983,1.32157 26.248696,33.172454 48.345655 0 0 -1.87864,1.43542 26.248696,33.172454 48.345655 0 0 -1.79733,1.54114 26.248696,33.172454 48.345655 0 0 -1.26158,1.21278 26.248696,33.172454 48.345655 0 0 20.60314,11.39796 26.248696,33.172454 48.345655 0 0 25.95851,-11.38779 z" />
      <path
         id="path1542"
         style="mix-blend-mode:normal;fill:#2c66e5;fill-opacity:0.636487;stroke:none;stroke-width:0.116066;stop-color:#000000"
         d="m 129.96387,79.572216 a 26.248696,33.172454 48.345654 0 0 0.69232,1.213795 26.248696,33.172454 48.345654 0 0 1.07451,1.541161 26.248696,33.172454 48.345654 0 0 1.20467,1.435403 26.248696,33.172454 48.345654 0 0 1.32969,1.321564 26.248696,33.172454 48.345654 0 0 1.44864,1.201613 26.248696,33.172454 48.345654 0 0 1.55943,1.074531 26.248696,33.172454 48.345654 0 0 1.66212,0.943377 26.248696,33.172454 48.345654 0 0 1.75666,0.806164 26.248696,33.172454 48.345654 0 0 1.84308,0.66484 26.248696,33.172454 48.345654 0 0 1.91829,0.520504 26.248696,33.172454 48.345654 0 0 1.98539,0.374086 26.248696,33.172454 48.345654 0 0 2.0413,0.225698 26.248696,33.172454 48.345654 0 0 2.08806,0.07515 26.248696,33.172454 48.345654 0 0 0.71467,-0.0098 26.248696,33.172454 48.345654 0 0 0.71874,-0.02538 26.248696,33.172454 48.345654 0 0 0.72177,-0.04269 26.248696,33.172454 48.345654 0 0 0.72482,-0.06098 26.248696,33.172454 48.345654 0 0 0.72684,-0.07731 26.248696,33.172454 48.345654 0 0 0.72892,-0.09462 26.248696,33.172454 48.345654 0 0 0.73089,-0.111738 26.248696,33.172454 48.345654 0 0 0.73094,-0.128065 26.248696,33.172454 48.345654 0 0 0.73297,-0.145377 26.248696,33.172454 48.345654 0 0 0.73194,-0.162689 26.248696,33.172454 48.345654 0 0 0.73194,-0.179016 26.248696,33.172454 48.345654 0 0 0.73194,-0.195148 26.248696,33.172454 48.345654 0 0 0.73094,-0.212479 26.248696,33.172454 48.345654 0 0 0.72889,-0.228727 26.248696,33.172454 48.345654 0 0 0.72684,-0.243974 26.248696,33.172454 48.345654 0 0 0.72482,-0.261266 26.248696,33.172454 48.345654 0 0 0.7228,-0.276511 26.248696,33.172454 48.345654 0 0 0.71872,-0.292781 26.248696,33.172454 48.345654 0 0 0.71567,-0.309029 26.248696,33.172454 48.345654 0 0 0.7106,-0.323292 26.248696,33.172454 48.345654 0 0 0.70756,-0.338498 26.248696,33.172454 48.345654 0 0 0.70143,-0.354807 26.248696,33.172454 48.345654 0 0 0.69738,-0.36901 26.248696,33.172454 48.345654 0 0 0.69128,-0.383252 26.248696,33.172454 48.345654 0 0 0.68416,-0.397495 26.248696,33.172454 48.345654 0 0 0.67908,-0.412741 26.248696,33.172454 48.345654 0 0 0.67198,-0.425941 26.248696,33.172454 48.345654 0 0 0.66382,-0.440178 26.248696,33.172454 48.345654 0 0 0.65773,-0.45239 26.248696,33.172454 48.345654 0 0 0.64857,-0.466599 26.248696,33.172454 48.345654 0 0 0.64045,-0.479835 26.248696,33.172454 48.345654 0 0 0.63132,-0.491018 26.248696,33.172454 48.345654 0 0 0.62315,-0.504215 26.248696,33.172454 48.345654 0 0 0.613,-0.516433 26.248696,33.172454 48.345654 0 0 0.60282,-0.528613 26.248696,33.172454 48.345654 0 0 0.59268,-0.538804 26.248696,33.172454 48.345654 0 0 0.58251,-0.550983 26.248696,33.172454 48.345654 0 0 0.36394,-0.356821 26.248696,33.172454 48.345654 0 0 -20.61024,-11.407108 26.248696,33.172454 48.345654 0 0 -25.95244,11.396939 z" />
      <path
         id="path1592"
         style="mix-blend-mode:normal;fill:#0bffbb;fill-opacity:0.5;stroke:none;stroke-width:0.116066;stop-color:#000000"
         d="m 122.30492,120.96961 a 26.248696,33.172454 48.345654 0 0 0.42289,-0.27956 26.248696,33.172454 48.345654 0 0 0.65672,-0.45341 26.248696,33.172454 48.345654 0 0 0.64859,-0.46658 26.248696,33.172454 48.345654 0 0 0.64044,-0.47882 26.248696,33.172454 48.345654 0 0 0.6323,-0.49204 26.248696,33.172454 48.345654 0 0 0.62215,-0.50422 26.248696,33.172454 48.345654 0 0 0.61301,-0.51643 26.248696,33.172454 48.345654 0 0 0.60283,-0.5276 26.248696,33.172454 48.345654 0 0 0.59371,-0.53981 26.248696,33.172454 48.345654 0 0 0.58146,-0.54997 26.248696,33.172454 48.345654 0 0 0.57237,-0.56217 26.248696,33.172454 48.345654 0 0 0.56012,-0.57132 26.248696,33.172454 48.345654 0 0 0.54795,-0.58251 26.248696,33.172454 48.345654 0 0 0.53777,-0.59164 26.248696,33.172454 48.345654 0 0 0.52456,-0.60083 26.248696,33.172454 48.345654 0 0 0.51134,-0.60995 26.248696,33.172454 48.345654 0 0 0.49914,-0.61908 26.248696,33.172454 48.345654 0 0 0.48694,-0.62725 26.248696,33.172454 48.345654 0 0 0.47271,-0.63535 26.248696,33.172454 48.345654 0 0 0.45848,-0.64351 26.248696,33.172454 48.345654 0 0 0.44525,-0.6496 26.248696,33.172454 48.345654 0 0 0.43104,-0.65774 26.248696,33.172454 48.345654 0 0 0.41681,-0.66381 26.248696,33.172454 48.345654 0 0 0.40257,-0.66893 26.248696,33.172454 48.345654 0 0 0.38631,-0.67602 26.248696,33.172454 48.345654 0 0 0.37207,-0.6811 26.248696,33.172454 48.345654 0 0 0.35682,-0.68519 26.248696,33.172454 48.345654 0 0 0.34054,-0.69025 26.248696,33.172454 48.345654 0 0 0.32532,-0.69435 26.248696,33.172454 48.345654 0 0 0.30905,-0.69838 26.248696,33.172454 48.345654 0 0 0.29378,-0.70145 26.248696,33.172454 48.345654 0 0 0.27651,-0.70448 26.248696,33.172454 48.345654 0 0 0.26025,-0.70654 26.248696,33.172454 48.345654 0 0 0.24399,-0.70857 26.248696,33.172454 48.345654 0 0 0.22668,-0.710578 26.248696,33.172454 48.345654 0 0 0.21043,-0.7116 26.248696,33.172454 48.345654 0 0 0.19318,-0.712643 26.248696,33.172454 48.345654 0 0 0.17587,-0.713626 26.248696,33.172454 48.345654 0 0 0.41886,-2.104348 26.248696,33.172454 48.345654 0 0 0.26532,-2.0952 26.248696,33.172454 48.345654 0 0 0.11292,-2.072793 26.248696,33.172454 48.345654 0 0 -0.0417,-2.040295 26.248696,33.172454 48.345654 0 0 -0.19613,-1.99861 26.248696,33.172454 48.345654 0 0 -0.34971,-1.946754 26.248696,33.172454 48.345654 0 0 -0.50119,-1.883736 26.248696,33.172454 48.345654 0 0 -0.64959,-1.811548 26.248696,33.172454 48.345654 0 0 -0.79495,-1.730229 26.248696,33.172454 48.345654 0 0 -0.9373,-1.639758 26.248696,33.172454 48.345654 0 0 -1.07351,-1.542162 26.248696,33.172454 48.345654 0 0 -1.20466,-1.43542 26.248696,33.172454 48.345654 0 0 -0.98406,-0.977953 26.248696,33.172454 48.345654 0 0 -16.86008,23.278806 26.248696,33.172454 48.345654 0 0 5.944,23.286907 z" />
      <path
         id="path1446-6"
         style="mix-blend-mode:normal;fill:#2c66e5;fill-opacity:0.636487;stroke:none;stroke-width:0.116066;stop-color:#000000"
         d="m 159.52821,152.02529 a 26.248696,33.172454 48.345654 0 0 -0.69838,-1.22295 26.248696,33.172454 48.345654 0 0 -1.07353,-1.54218 26.248696,33.172454 48.345654 0 0 -1.20566,-1.4354 26.248696,33.172454 48.345654 0 0 -1.32968,-1.32157 26.248696,33.172454 48.345654 0 0 -1.44864,-1.20162 26.248696,33.172454 48.345654 0 0 -1.55945,-1.07451 26.248696,33.172454 48.345654 0 0 -1.66211,-0.94339 26.248696,33.172454 48.345654 0 0 -1.75667,-0.80514 26.248696,33.172454 48.345654 0 0 -1.84306,-0.66587 26.248696,33.172454 48.345654 0 0 -1.91831,-0.5205 26.248696,33.172454 48.345654 0 0 -1.98539,-0.37409 26.248696,33.172454 48.345654 0 0 -2.0413,-0.2257 26.248696,33.172454 48.345654 0 0 -2.08705,-0.0751 26.248696,33.172454 48.345654 0 0 -2.12365,0.0751 26.248696,33.172454 48.345654 0 0 -2.14703,0.2257 26.248696,33.172454 48.345654 0 0 -2.16024,0.37409 26.248696,33.172454 48.345654 0 0 -2.16328,0.5205 26.248696,33.172454 48.345654 0 0 -2.15517,0.66587 26.248696,33.172454 48.345654 0 0 -2.13483,0.80514 26.248696,33.172454 48.345654 0 0 -2.10536,0.94339 26.248696,33.172454 48.345654 0 0 -2.06366,1.07451 26.248696,33.172454 48.345654 0 0 -2.01181,1.20162 26.248696,33.172454 48.345654 0 0 -1.95085,1.32157 26.248696,33.172454 48.345654 0 0 -1.87762,1.4354 26.248696,33.172454 48.345654 0 0 -1.79733,1.54218 26.248696,33.172454 48.345654 0 0 -1.26259,1.21278 26.248696,33.172454 48.345654 0 0 20.60415,11.39796 26.248696,33.172454 48.345654 0 0 25.9585,-11.38779 z" />
      <path
         id="path1655"
         style="mix-blend-mode:normal;fill:#f9ff13;fill-opacity:0.5;stroke:none;stroke-width:0.116066;stop-color:#000000"
         d="m 113.80624,157.19056 a 26.248696,33.172454 48.345654 0 0 0.42292,-0.27956 26.248696,33.172454 48.345654 0 0 0.65673,-0.4534 26.248696,33.172454 48.345654 0 0 0.64857,-0.4656 26.248696,33.172454 48.345654 0 0 0.64045,-0.47982 26.248696,33.172454 48.345654 0 0 0.6313,-0.49204 26.248696,33.172454 48.345654 0 0 0.62317,-0.50422 26.248696,33.172454 48.345654 0 0 0.61298,-0.51643 26.248696,33.172454 48.345654 0 0 0.60285,-0.52761 26.248696,33.172454 48.345654 0 0 0.59267,-0.5398 26.248696,33.172454 48.345654 0 0 0.58251,-0.54997 26.248696,33.172454 48.345654 0 0 0.57132,-0.56115 26.248696,33.172454 48.345654 0 0 0.56012,-0.57234 26.248696,33.172454 48.345654 0 0 0.54895,-0.58149 26.248696,33.172454 48.345654 0 0 0.53678,-0.59164 26.248696,33.172454 48.345654 0 0 0.52455,-0.60183 26.248696,33.172454 48.345654 0 0 0.51234,-0.60995 26.248696,33.172454 48.345654 0 0 0.49916,-0.61911 26.248696,33.172454 48.345654 0 0 0.48593,-0.62724 26.248696,33.172454 48.345654 0 0 0.47372,-0.63537 26.248696,33.172454 48.345654 0 0 0.45848,-0.64247 26.248696,33.172454 48.345654 0 0 0.44526,-0.6506 26.248696,33.172454 48.345654 0 0 0.43105,-0.65674 26.248696,33.172454 48.345654 0 0 0.4168,-0.66381 26.248696,33.172454 48.345654 0 0 0.40155,-0.66994 26.248696,33.172454 48.345654 0 0 0.38732,-0.67501 26.248696,33.172454 48.345654 0 0 0.37206,-0.6811 26.248696,33.172454 48.345654 0 0 0.35681,-0.68621 26.248696,33.172454 48.345654 0 0 0.34057,-0.69025 26.248696,33.172454 48.345654 0 0 0.32531,-0.69433 26.248696,33.172454 48.345654 0 0 0.30903,-0.69738 26.248696,33.172454 48.345654 0 0 0.2928,-0.70145 26.248696,33.172454 48.345654 0 0 0.27752,-0.70448 26.248696,33.172454 48.345654 0 0 0.26024,-0.70654 26.248696,33.172454 48.345654 0 0 0.24399,-0.70957 26.248696,33.172454 48.345654 0 0 0.22671,-0.7106 26.248696,33.172454 48.345654 0 0 0.20939,-0.7116 26.248696,33.172454 48.345654 0 0 0.19318,-0.71262 26.248696,33.172454 48.345654 0 0 0.17587,-0.71263 26.248696,33.172454 48.345654 0 0 0.41883,-2.10537 26.248696,33.172454 48.345654 0 0 0.26635,-2.09417 26.248696,33.172454 48.345654 0 0 0.11291,-2.0728 26.248696,33.172454 48.345654 0 0 -0.0427,-2.04132 26.248696,33.172454 48.345654 0 0 -0.19614,-1.99861 26.248696,33.172454 48.345654 0 0 -0.3487,-1.94573 26.248696,33.172454 48.345654 0 0 -0.50117,-1.88374 26.248696,33.172454 48.345654 0 0 -0.64959,-1.81155 26.248696,33.172454 48.345654 0 0 -0.796,-1.73022 26.248696,33.172454 48.345654 0 0 -0.93627,-1.64078 26.248696,33.172454 48.345654 0 0 -1.07353,-1.54113 26.248696,33.172454 48.345654 0 0 -1.20567,-1.43542 26.248696,33.172454 48.345654 0 0 -0.98303,-0.97796 26.248696,33.172454 48.345654 0 0 -16.86006,23.2788 26.248696,33.172454 48.345654 0 0 5.94395,23.2859 z" />
      <path
         id="path1446-0"
         style="mix-blend-mode:normal;fill:#0bffbb;fill-opacity:0.5;stroke:none;stroke-width:0.116066;stop-color:#000000"
         d="m 168.23022,110.62687 a 26.248696,33.172454 48.345654 0 0 -1.44254,0.97695 26.248696,33.172454 48.345654 0 0 -1.87867,1.43542 26.248696,33.172454 48.345654 0 0 -1.7963,1.54113 26.248696,33.172454 48.345654 0 0 -1.70683,1.64078 26.248696,33.172454 48.345654 0 0 -1.60724,1.73022 26.248696,33.172454 48.345654 0 0 -1.50047,1.81155 26.248696,33.172454 48.345654 0 0 -1.38458,1.88374 26.248696,33.172454 48.345654 0 0 -1.2626,1.94573 26.248696,33.172454 48.345654 0 0 -1.13451,1.99861 26.248696,33.172454 48.345654 0 0 -0.9993,2.04132 26.248696,33.172454 48.345654 0 0 -0.86105,2.0728 26.248696,33.172454 48.345654 0 0 -0.7167,2.09417 26.248696,33.172454 48.345654 0 0 -0.56827,2.10537 26.248696,33.172454 48.345654 0 0 -0.41884,2.10533 26.248696,33.172454 48.345654 0 0 -0.26636,2.09418 26.248696,33.172454 48.345654 0 0 -0.11292,2.07281 26.248696,33.172454 48.345654 0 0 0.0427,2.0413 26.248696,33.172454 48.345654 0 0 0.19613,1.99861 26.248696,33.172454 48.345654 0 0 0.34871,1.94575 26.248696,33.172454 48.345654 0 0 0.50117,1.88373 26.248696,33.172454 48.345654 0 0 0.64959,1.81155 26.248696,33.172454 48.345654 0 0 0.796,1.73022 26.248696,33.172454 48.345654 0 0 0.93627,1.63977 26.248696,33.172454 48.345654 0 0 1.07353,1.54214 26.248696,33.172454 48.345654 0 0 1.20566,1.43543 26.248696,33.172454 48.345654 0 0 0.99117,0.98508 26.248696,33.172454 48.345654 0 0 16.85193,-23.2859 26.248696,33.172454 48.345654 0 0 -5.93583,-23.27779 z" />
      <path
         id="path1567"
         style="mix-blend-mode:normal;fill:#f9ff13;fill-opacity:0.5;stroke:none;stroke-width:0.116066;stop-color:#000000"
         d="m 165.81277,120.96961 a 26.248696,33.172454 48.345656 0 0 0.42291,-0.27956 26.248696,33.172454 48.345656 0 0 0.65671,-0.45341 26.248696,33.172454 48.345656 0 0 0.6496,-0.4666 26.248696,33.172454 48.345656 0 0 0.64044,-0.47882 26.248696,33.172454 48.345656 0 0 0.6313,-0.49202 26.248696,33.172454 48.345656 0 0 0.62215,-0.50422 26.248696,33.172454 48.345656 0 0 0.61301,-0.51643 26.248696,33.172454 48.345656 0 0 0.60383,-0.5276 26.248696,33.172454 48.345656 0 0 0.59268,-0.53983 26.248696,33.172454 48.345656 0 0 0.58252,-0.54995 26.248696,33.172454 48.345656 0 0 0.57131,-0.56217 26.248696,33.172454 48.345656 0 0 0.56013,-0.57132 26.248696,33.172454 48.345656 0 0 0.54897,-0.58251 26.248696,33.172454 48.345656 0 0 0.53675,-0.59164 26.248696,33.172454 48.345656 0 0 0.52456,-0.60083 26.248696,33.172454 48.345656 0 0 0.51236,-0.60995 26.248696,33.172454 48.345656 0 0 0.49914,-0.61908 26.248696,33.172454 48.345656 0 0 0.48594,-0.62723 26.248696,33.172454 48.345656 0 0 0.4727,-0.63537 26.248696,33.172454 48.345656 0 0 0.45949,-0.64351 26.248696,33.172454 48.345656 0 0 0.44528,-0.6496 26.248696,33.172454 48.345656 0 0 0.43103,-0.65774 26.248696,33.172454 48.345656 0 0 0.4168,-0.66381 26.248696,33.172454 48.345656 0 0 0.40154,-0.66893 26.248696,33.172454 48.345656 0 0 0.38733,-0.67604 26.248696,33.172454 48.345656 0 0 0.37208,-0.68108 26.248696,33.172454 48.345656 0 0 0.35579,-0.68519 26.248696,33.172454 48.345656 0 0 0.34158,-0.69025 26.248696,33.172454 48.345656 0 0 0.3253,-0.69435 26.248696,33.172454 48.345656 0 0 0.30905,-0.6984 26.248696,33.172454 48.345656 0 0 0.29278,-0.70143 26.248696,33.172454 48.345656 0 0 0.27649,-0.7045 26.248696,33.172454 48.345656 0 0 0.26026,-0.70652 26.248696,33.172454 48.345656 0 0 0.24398,-0.70855 26.248696,33.172454 48.345656 0 0 0.22668,-0.710598 26.248696,33.172454 48.345656 0 0 0.21045,-0.7116 26.248696,33.172454 48.345656 0 0 0.19318,-0.712643 26.248696,33.172454 48.345656 0 0 0.17587,-0.713626 26.248696,33.172454 48.345656 0 0 0.41882,-2.104348 26.248696,33.172454 48.345656 0 0 0.26634,-2.09518 26.248696,33.172454 48.345656 0 0 0.11174,-2.072813 26.248696,33.172454 48.345656 0 0 -0.0417,-2.040295 26.248696,33.172454 48.345656 0 0 -0.19614,-1.99861 26.248696,33.172454 48.345656 0 0 -0.34971,-1.946754 26.248696,33.172454 48.345656 0 0 -0.50016,-1.883738 26.248696,33.172454 48.345656 0 0 -0.65062,-1.811548 26.248696,33.172454 48.345656 0 0 -0.79497,-1.730229 26.248696,33.172454 48.345656 0 0 -0.9373,-1.639758 26.248696,33.172454 48.345656 0 0 -1.0735,-1.542162 26.248696,33.172454 48.345656 0 0 -1.20467,-1.435418 26.248696,33.172454 48.345656 0 0 -0.98404,-0.977955 26.248696,33.172454 48.345656 0 0 -16.85905,23.278808 26.248696,33.172454 48.345656 0 0 5.94295,23.286907 z" />
    </g>
  </g>
</svg>
